<svg xmlns="http://www.w3.org/2000/svg" viewBox="0 0 64 64" role="img" aria-label="SportSplitter"><style>@keyframes s0{0%,100%{transform:translateY(-3px)}50%{transform:translateY(4px)}}.s0{animation:s0 1.1s ease-in-out 0s infinite}@keyframes s1{0%,100%{transform:translateY(0px)}50%{transform:translateY(-4px)}}.s1{animation:s1 1.1s ease-in-out 0.12s infinite}@keyframes s2{0%,100%{transform:translateY(3px)}50%{transform:translateY(-4px)}}.s2{animation:s2 1.1s ease-in-out 0.24s infinite}@media (prefers-reduced-motion:reduce){g{animation:none!important}}</style><defs><linearGradient id="bg" x1="0" y1="0" x2="1" y2="1"><stop offset="0" stop-color="#4f46e5"/><stop offset="1" stop-color="#7c3aed"/></linearGradient><clipPath id="c0"><rect x="15" y="0" width="10" height="64"/></clipPath><clipPath id="c1"><rect x="27" y="0" width="10" height="64"/></clipPath><clipPath id="c2"><rect x="39" y="0" width="10" height="64"/></clipPath></defs><rect width="64" height="64" rx="16" fill="url(#bg)"/><g class="s0" transform="translate(0 -3)"><g clip-path="url(#c0)"><circle cx="32" cy="32" r="17" fill="#fff"/><path d="M14 27.5 Q32 37 50 27.5" fill="none" stroke="#4f46e5" stroke-opacity="0.45" stroke-width="2.2"/><path d="M14 38.5 Q32 30 50 38.5" fill="none" stroke="#7c3aed" stroke-opacity="0.3" stroke-width="2.2"/></g></g><g class="s1" transform="translate(0 0)"><g clip-path="url(#c1)"><circle cx="32" cy="32" r="17" fill="#fff"/><path d="M14 27.5 Q32 37 50 27.5" fill="none" stroke="#4f46e5" stroke-opacity="0.45" stroke-width="2.2"/><path d="M14 38.5 Q32 30 50 38.5" fill="none" stroke="#7c3aed" stroke-opacity="0.3" stroke-width="2.2"/></g></g><g class="s2" transform="translate(0 3)"><g clip-path="url(#c2)"><circle cx="32" cy="32" r="17" fill="#fff"/><path d="M14 27.5 Q32 37 50 27.5" fill="none" stroke="#4f46e5" stroke-opacity="0.45" stroke-width="2.2"/><path d="M14 38.5 Q32 30 50 38.5" fill="none" stroke="#7c3aed" stroke-opacity="0.3" stroke-width="2.2"/></g></g></svg>
